<svg id="e0e3td41u366b1" xmlns="http://www.w3.org/2000/svg" xmlns:xlink="http://www.w3.org/1999/xlink" viewBox="0 0 402 403" shape-rendering="geometricPrecision" text-rendering="geometricPrecision"><style><![CDATA[#e0e3td41u366b2_to {animation: e0e3td41u366b2_to__to 3000ms linear infinite normal forwards}@keyframes e0e3td41u366b2_to__to { 0% {transform: translate(285px,117px);animation-timing-function: cubic-bezier(0.420000,0,0.580000,1)} 50% {transform: translate(245.573506px,117px);animation-timing-function: cubic-bezier(0.420000,0,0.580000,1)} 100% {transform: translate(285px,117px)} }#e0e3td41u366b3_tr {animation: e0e3td41u366b3_tr__tr 3000ms linear infinite normal forwards}@keyframes e0e3td41u366b3_tr__tr { 0% {transform: translate(186.990575px,215.993904px) rotate(0deg)} 100% {transform: translate(186.990575px,215.993904px) rotate(360deg)} }]]></style><g id="e0e3td41u366b2_to" transform="translate(285,117)"><circle id="e0e3td41u366b2" r="117" transform="translate(0,0)" fill="rgb(1,255,194)" stroke="none" stroke-width="1"/></g><g id="e0e3td41u366b3_tr" transform="translate(186.990575,215.993904) rotate(0)"><path id="e0e3td41u366b3" d="M224.879000,60.591200C223.160000,50.274900,214.772000,42.371900,204.382000,41.263000C192.776000,40.125700,181.195000,40.125700,169.687000,41.264100C159.211000,42.381700,150.823000,50.282300,149.104000,60.592400C148.207000,65.812000,147.016000,71.042500,145.554000,76.211700C145.505000,76.382400,145.321000,76.556800,145.100000,76.621900C135.717000,79.439300,126.703000,83.174000,118.118000,87.780700C117.848000,87.926800,117.615000,87.926800,117.406000,87.816300C112.751000,85.229900,108.232000,82.376900,103.860000,79.284500C95.385500,73.236000,83.865800,73.576100,75.735600,80.145400C66.721100,87.543600,58.529600,95.736500,51.209900,104.675000C44.590300,112.875000,44.246200,124.387000,50.313100,132.895000C53.371200,137.225000,56.232900,141.763000,58.848900,146.456000C58.934800,146.612000,58.934800,146.857000,58.824300,147.061000C54.169700,155.692000,50.436000,164.709000,47.635900,174.029000C47.549900,174.324000,47.378100,174.496000,47.157100,174.559000C42.035800,176.020000,36.816300,177.205000,31.535300,178.111000C21.268200,179.823000,13.371100,188.208000,12.253500,198.607000C11.123600,210.206000,11.123700,221.793000,12.265800,233.295000C13.383400,243.774000,21.280200,252.155000,31.584200,253.875000C36.803800,254.780000,42.035800,255.968000,47.206200,257.435000C47.378200,257.484000,47.549900,257.659000,47.611300,257.881000C50.436000,267.270000,54.169600,276.286000,58.775100,284.862000C58.922500,285.132000,58.922500,285.375000,58.812000,285.575000C56.220600,290.227000,53.371400,294.754000,50.276600,299.129000C44.234200,307.598000,44.565700,319.115000,51.136200,327.253000C58.541800,336.260000,66.733400,344.452000,75.674100,351.780000C83.865700,358.399000,95.385500,358.740000,103.896000,352.665000C108.219000,349.615000,112.764000,346.756000,117.455000,344.138000C117.602000,344.054000,117.860000,344.052000,118.057000,344.164000C126.690000,348.810000,135.705000,352.545000,145.026000,355.351000C145.321000,355.438000,145.493000,355.610000,145.554000,355.830000C147.016000,360.949000,148.207000,366.167000,149.104000,371.447000C150.823000,381.713000,159.199000,389.616000,169.601000,390.725000C181.207000,391.862000,192.788000,391.862000,204.296000,390.724000C214.772000,389.606000,223.147000,381.706000,224.867000,371.395000C225.776000,366.176000,226.967000,360.945000,228.428000,355.776000C228.477000,355.605000,228.649000,355.431000,228.883000,355.366000C238.266000,352.549000,247.280000,348.814000,255.852000,344.207000C256.123000,344.061000,256.368000,344.061000,256.577000,344.172000C261.219000,346.758000,265.751000,349.611000,270.123000,352.703000C278.597000,358.752000,290.117000,358.412000,298.247000,351.842000C307.262000,344.444000,315.453000,336.251000,322.773000,327.313000C329.393000,319.113000,329.736000,307.600000,323.657000,299.093000C320.611000,294.763000,317.750000,290.225000,315.134000,285.532000C315.048000,285.376000,315.048000,285.131000,315.159000,284.927000C319.801000,276.296000,323.547000,267.279000,326.347000,257.958000C326.433000,257.664000,326.605000,257.492000,326.826000,257.429000C331.947000,255.968000,337.167000,254.782000,342.448000,253.877000C352.715000,252.165000,360.612000,243.780000,361.717000,233.381000C362.859000,221.781000,362.859000,210.195000,361.717000,198.693000C360.599000,188.214000,352.702000,179.832000,342.386000,178.113000C337.167000,177.208000,331.947000,176.020000,326.777000,174.553000C326.605000,174.504000,326.420000,174.329000,326.359000,174.107000C323.547000,164.718000,319.813000,155.702000,315.208000,147.126000C315.060000,146.856000,315.060000,146.613000,315.171000,146.413000C317.750000,141.760000,320.612000,137.234000,323.706000,132.859000C329.749000,124.390000,329.405000,112.873000,322.834000,104.735000C315.441000,95.727900,307.250000,87.536300,298.309000,80.208000C290.105000,73.588400,278.597000,73.248200,270.087000,79.322600C265.764000,82.373200,261.219000,85.232300,256.528000,87.849400C256.368000,87.935400,256.123000,87.935400,255.926000,87.823600C247.292000,83.177600,238.278000,79.442900,228.957000,76.636600C228.662000,76.549400,228.490000,76.377600,228.428000,76.157700C226.967000,71.038900,225.776000,65.820600,224.867000,60.540900L224.879000,60.591200ZM202.576000,64.362800C203.620000,70.448200,204.996000,76.462200,206.691000,82.402700C208.901000,90.084600,214.870000,96.073000,222.509000,98.315600C230.295000,100.662000,237.910000,103.814000,245.143000,107.708000C252.070000,111.492000,260.532000,111.474000,267.495000,107.628000C272.923000,104.600000,278.143000,101.320000,283.178000,97.771500C283.473000,97.556600,283.805000,97.566400,284.038000,97.753100C291.763000,104.088000,298.911000,111.230000,305.297000,119.017000C305.432000,119.178000,305.444000,119.511000,305.260000,119.757000C301.674000,124.839000,298.382000,130.056000,295.386000,135.457000C291.517000,142.461000,291.505000,150.911000,295.312000,157.897000C299.169000,165.067000,302.312000,172.675000,304.683000,180.543000C306.906000,188.120000,312.899000,194.085000,320.538000,196.295000C326.531000,197.995000,332.524000,199.357000,338.604000,200.410000C338.960000,200.471000,339.193000,200.710000,339.218000,201.006000C340.200000,210.949000,340.200000,221.050000,339.218000,231.078000C339.193000,231.283000,338.972000,231.527000,338.677000,231.576000C332.537000,232.628000,326.519000,233.994000,320.587000,235.690000C312.899000,237.910000,306.906000,243.874000,304.670000,251.511000C302.325000,259.303000,299.169000,266.913000,295.275000,274.146000C291.493000,281.075000,291.505000,289.529000,295.361000,296.502000C298.382000,301.934000,301.661000,307.141000,305.211000,312.178000C305.432000,312.479000,305.420000,312.808000,305.235000,313.039000C298.898000,320.766000,291.750000,327.908000,283.964000,334.305000C283.804000,334.434000,283.473000,334.444000,283.227000,334.268000C278.143000,330.673000,272.923000,327.387000,267.532000,324.385000C260.519000,320.522000,252.070000,320.504000,245.082000,324.319000C237.922000,328.169000,230.307000,331.322000,222.435000,333.683000C214.870000,335.908000,208.901000,341.897000,206.691000,349.547000C204.996000,355.531000,203.633000,361.532000,202.576000,367.603000C202.515000,367.968000,202.269000,368.193000,201.975000,368.224000C192.039000,369.208000,181.931000,369.208000,171.910000,368.224000C171.701000,368.202000,171.456000,367.974000,171.406000,367.675000C170.350000,361.540000,168.987000,355.526000,167.292000,349.585000C165.069000,341.903000,159.113000,335.915000,151.474000,333.672000C143.675000,331.325000,136.073000,328.174000,128.840000,324.280000C121.913000,320.496000,113.451000,320.514000,106.488000,324.359000C101.047000,327.388000,95.840000,330.668000,90.804700,334.216000C90.510000,334.431000,90.178100,334.421000,89.944800,334.235000C82.219900,327.900000,75.072400,320.757000,68.686200,312.971000C68.551100,312.810000,68.538800,312.477000,68.723000,312.230000C72.309200,307.148000,75.600300,301.931000,78.596900,296.531000C82.465500,289.527000,82.477900,281.077000,78.670700,274.091000C74.814400,266.921000,71.658200,259.313000,69.300200,251.444000C67.077300,243.868000,61.083900,237.903000,53.432600,235.692000C47.451700,233.993000,41.446200,232.631000,35.379200,231.578000C35.023100,231.517000,34.789700,231.277000,34.765200,230.981000C33.770400,221.038000,33.770400,210.938000,34.765200,200.909000C34.777500,200.704000,35.010700,200.461000,35.305500,200.412000C41.446100,199.360000,47.463900,197.994000,53.395700,196.298000C61.083800,194.077000,67.065000,188.114000,69.312500,180.477000C71.658200,172.685000,74.814400,165.075000,78.707600,157.842000C82.490200,150.912000,82.465500,142.459000,78.621500,135.486000C75.600300,130.054000,72.321200,124.847000,68.771900,119.810000C68.550800,119.509000,68.563100,119.180000,68.747300,118.949000C75.084500,111.222000,82.232200,104.080000,90.006300,97.683000C90.178200,97.554100,90.509900,97.544300,90.755500,97.721100C95.840000,101.315000,101.060000,104.602000,106.451000,107.604000C113.451000,111.466000,121.913000,111.483000,128.889000,107.669000C136.061000,103.819000,143.675000,100.666000,151.535000,98.304500C159.113000,96.080300,165.082000,90.090800,167.292000,82.440800C168.987000,76.457300,170.350000,70.456800,171.406000,64.384900C171.468000,64.020200,171.701000,63.795400,172.008000,63.763400C181.944000,62.779700,192.051000,62.779700,202.073000,63.763400C202.282000,63.785500,202.527000,64.014000,202.576000,64.312400L202.576000,64.362800Z" transform="translate(-186.990575,-215.993904)" clip-rule="evenodd" fill="rgb(234,234,234)" fill-rule="evenodd" stroke="none" stroke-width="1"/></g><path id="e0e3td41u366b4" d="M186.993000,144.047000C147.275000,144.047000,115.037000,176.288000,115.037000,216.001000C115.037000,255.712000,147.275000,287.953000,186.993000,287.953000C226.698000,287.953000,258.949000,255.712000,258.949000,216.001000C258.949000,176.288000,226.698000,144.047000,186.993000,144.047000ZM186.993000,162.895000C216.296000,162.895000,240.097000,186.691000,240.097000,216.001000C240.097000,245.310000,216.296000,269.105000,186.993000,269.105000C157.677000,269.105000,133.888000,245.310000,133.888000,216.001000C133.888000,186.691000,157.677000,162.895000,186.993000,162.895000Z" clip-rule="evenodd" fill="rgb(234,234,234)" fill-rule="evenodd" stroke="none" stroke-width="1"/></svg>