<svg id="ew0x1ocxlec1" xmlns="http://www.w3.org/2000/svg" xmlns:xlink="http://www.w3.org/1999/xlink" viewBox="0 0 25 25" shape-rendering="geometricPrecision" text-rendering="geometricPrecision"><style><![CDATA[#ew0x1ocxlec7_tr {animation: ew0x1ocxlec7_tr__tr 3000ms linear infinite normal forwards}@keyframes ew0x1ocxlec7_tr__tr { 0% {transform: translate(9.500000px,7.981000px) rotate(0deg)} 6.666667% {transform: translate(9.500000px,7.981000px) rotate(0deg)} 10% {transform: translate(9.500000px,7.981000px) rotate(-4.260826deg)} 13.333333% {transform: translate(9.500000px,7.981000px) rotate(0deg)} 16.666667% {transform: translate(9.500000px,7.981000px) rotate(5.811928deg)} 20% {transform: translate(9.500000px,7.981000px) rotate(0deg)} 23.333333% {transform: translate(9.500000px,7.981000px) rotate(-5.546264deg)} 26.666667% {transform: translate(9.500000px,7.981000px) rotate(7.486787deg)} 33.333333% {transform: translate(9.500000px,7.981000px) rotate(0.172183deg)} 100% {transform: translate(9.500000px,7.981000px) rotate(0.172183deg)} }#ew0x1ocxlec10_to {animation: ew0x1ocxlec10_to__to 3000ms linear infinite normal forwards}@keyframes ew0x1ocxlec10_to__to { 0% {transform: translate(13.730422px,15.477604px)} 40% {transform: translate(13.730422px,15.477604px);animation-timing-function: cubic-bezier(0.250000,1,0.250000,1)} 57% {transform: translate(13.730089px,2.742692px)} 100% {transform: translate(13.730089px,2.742692px)} }#ew0x1ocxlec10 {animation: ew0x1ocxlec10_c_o 3000ms linear infinite normal forwards}@keyframes ew0x1ocxlec10_c_o { 0% {opacity: 1} 93.333333% {opacity: 1;animation-timing-function: cubic-bezier(0.420000,0,0.580000,1)} 100% {opacity: 0} }]]></style><defs><clipPath id="ew0x1ocxlec2"><path id="ew0x1ocxlec3" d="M13.724000,8.106000L16.633000,10.230000L20.942000,6.881000L22.902000,-2.965000L4.286000,-2.918000L6.439000,6.827000L10.733000,10.310000L13.724000,8.106000Z" clip-rule="evenodd" fill="rgb(0,0,0)" fill-rule="evenodd" stroke="none" stroke-width="1" stroke-linejoin="round" stroke-miterlimit="2"/></clipPath></defs><g id="ew0x1ocxlec4" transform="matrix(1 0 0 1 -24.18850000000000 2.85329000000000)" clip-rule="evenodd"><rect id="ew0x1ocxlec5" width="24.713000" height="24.713000" rx="0" ry="0" transform="matrix(1 0 0 1 24.18900000000000 -2.85300000000000)" clip-rule="evenodd" fill="none" fill-rule="evenodd" stroke="none" stroke-width="1" stroke-linejoin="round" stroke-miterlimit="2"/><g id="ew0x1ocxlec6" transform="matrix(1.19402000000000 0 0 1.09441000000000 25.20190000000000 3.15791000000000)" clip-rule="evenodd"><g id="ew0x1ocxlec7_tr" transform="translate(9.500000,7.981000) rotate(0)"><path id="ew0x1ocxlec7" d="M18.250000,5.749000L9.500000,0.712000L0.750000,5.749000L0.750000,15.250000L18.250000,15.250000L18.250000,5.749000ZM2.574000,14.286000L16.428000,14.286000L9.501000,8.721000L2.574000,14.286000ZM1.693000,13.766000L5.655000,10.583000L1.693000,7.075000L1.693000,13.766000ZM13.244000,10.501000L17.307000,13.765000L17.307000,7.049000L13.244000,10.501000ZM12.486000,9.892000L16.943000,6.103000L9.500000,1.819000L2.045000,6.110000L6.411000,9.976000L9.501000,7.494000L12.486000,9.892000Z" transform="translate(-9.500000,-7.981000)" clip-rule="evenodd" fill="rgb(234,234,234)" fill-rule="evenodd" stroke="none" stroke-width="1" stroke-linejoin="round" stroke-miterlimit="2"/></g></g><g id="ew0x1ocxlec8" transform="matrix(1.23230000000000 0 0 1.23230000000000 19.62550000000000 1.37032000000000)" clip-rule="evenodd"><g id="ew0x1ocxlec9" clip-path="url(#ew0x1ocxlec2)" clip-rule="evenodd"><g id="ew0x1ocxlec10_to" transform="translate(13.730422,15.477604)"><circle id="ew0x1ocxlec10" r="5.216000" transform="translate(0.000001,0)" clip-rule="evenodd" fill="rgb(1,255,194)" fill-rule="evenodd" stroke="none" stroke-width="1" stroke-linejoin="round" stroke-miterlimit="2"/></g></g></g></g></svg>